<svg width="309" height="127" viewBox="0 0 309 127" fill="none" xmlns="http://www.w3.org/2000/svg">
<rect width="308.43" height="126.53" rx="16" fill="#181728"/>
<rect x="2" y="2" width="304.43" height="122.53" rx="14" stroke="url(#paint0_radial_1_112)" stroke-opacity="0.52" stroke-width="4"/>
<path d="M269.982 34.15H262.282V48.5H258.782V31H273.482V48.5H269.982V34.15Z" fill="white"/>
<path d="M247.946 48.85C242.626 48.85 239.581 45.245 239.581 39.75C239.581 34.255 242.626 30.65 247.946 30.65C253.266 30.65 256.311 34.255 256.311 39.75C256.311 45.245 253.266 48.85 247.946 48.85ZM247.946 45.7C251.551 45.7 252.811 44.3 252.811 39.75C252.811 35.2 251.551 33.8 247.946 33.8C244.341 33.8 243.081 35.2 243.081 39.75C243.081 44.3 244.341 45.7 247.946 45.7Z" fill="white"/>
<path d="M219.007 48.85C211.097 48.85 210.117 43.215 210.117 39.75C210.117 34.255 212.287 30.65 217.677 30.65C223.067 30.65 225.237 33.905 225.237 39.4V41.325H213.687C213.932 43.775 214.912 45.7 219.007 45.7C220.407 45.7 221.772 45.7 224.047 45.07V48.15C221.317 48.85 220.337 48.85 219.007 48.85ZM213.617 38.175H221.737C221.667 35.13 220.512 33.8 217.677 33.8C214.982 33.8 213.792 35.34 213.617 38.175Z" fill="white"/>
<path d="M203.792 24H207.292V48.5H203.792V24Z" fill="white"/>
<path d="M193.69 30.65C199.36 30.65 201.355 34.605 201.355 39.75C201.355 44.895 199.36 48.85 193.69 48.85C191.24 48.85 189.525 47.905 188.475 46.4V48.5H184.975V24H188.475V33.1C189.525 31.595 191.24 30.65 193.69 30.65ZM193.165 45.7C196.595 45.7 197.855 43.95 197.855 39.75C197.855 35.55 196.595 33.8 193.165 33.8C189.735 33.8 188.475 35.55 188.475 39.75C188.475 43.95 189.735 45.7 193.165 45.7Z" fill="white"/>
<path d="M177.951 24H181.451V27.5H177.951V24ZM177.951 31H181.451V48.5H177.951V31Z" fill="white"/>
<path d="M168.221 48.85C165.491 48.85 163.356 48.325 160.801 46.61V43.075C163.986 45.07 165.631 45.7 168.221 45.7C170.496 45.7 171.301 44.72 171.301 43.635C171.301 42.41 170.391 41.745 167.171 41.045C162.166 39.96 160.801 38.315 160.801 35.55C160.801 32.645 163.286 30.65 167.031 30.65C169.376 30.65 171.686 31.28 173.401 32.47V35.62C170.846 34.36 168.606 33.8 166.681 33.8C164.896 33.8 164.301 34.57 164.301 35.445C164.301 36.425 164.756 37.09 167.731 37.895C172.911 39.295 174.801 40.38 174.801 43.6C174.801 46.575 172.316 48.85 168.221 48.85Z" fill="white"/>
<path d="M151.797 48.85C149.067 48.85 146.932 48.325 144.377 46.61V43.075C147.562 45.07 149.207 45.7 151.797 45.7C154.072 45.7 154.877 44.72 154.877 43.635C154.877 42.41 153.967 41.745 150.747 41.045C145.742 39.96 144.377 38.315 144.377 35.55C144.377 32.645 146.862 30.65 150.607 30.65C152.952 30.65 155.262 31.28 156.977 32.47V35.62C154.422 34.36 152.182 33.8 150.257 33.8C148.472 33.8 147.877 34.57 147.877 35.445C147.877 36.425 148.332 37.09 151.307 37.895C156.487 39.295 158.377 40.38 158.377 43.6C158.377 46.575 155.892 48.85 151.797 48.85Z" fill="white"/>
<path d="M133.541 48.85C128.221 48.85 125.176 45.245 125.176 39.75C125.176 34.255 128.221 30.65 133.541 30.65C138.861 30.65 141.906 34.255 141.906 39.75C141.906 45.245 138.861 48.85 133.541 48.85ZM133.541 45.7C137.146 45.7 138.406 44.3 138.406 39.75C138.406 35.2 137.146 33.8 133.541 33.8C129.936 33.8 128.676 35.2 128.676 39.75C128.676 44.3 129.936 45.7 133.541 45.7Z" fill="white"/>
<path d="M115.398 30.65C121.068 30.65 123.063 34.605 123.063 39.75C123.063 44.895 121.068 48.85 115.398 48.85C112.948 48.85 111.233 47.905 110.183 46.4V54.1H106.683V31H110.183V33.1C111.233 31.595 112.948 30.65 115.398 30.65ZM114.873 45.7C118.303 45.7 119.563 43.95 119.563 39.75C119.563 35.55 118.303 33.8 114.873 33.8C111.443 33.8 110.183 35.55 110.183 39.75C110.183 43.95 111.443 45.7 114.873 45.7Z" fill="white"/>
<path d="M87.7845 31H91.2845V54.1H77.9845V50.95H87.7845V45.35C86.7345 46.505 85.0195 47.45 82.9195 47.45C77.5995 47.45 75.6045 43.845 75.6045 39.4V31H79.1045V39.4C79.1045 42.9 80.3645 44.3 83.4445 44.3C86.5245 44.3 87.7845 42.9 87.7845 39.4V31Z" fill="white"/>
<path d="M68.5881 24H72.0881V48.5H68.5881V24Z" fill="white"/>
<path d="M61.2367 34.15H53.5367V48.5H50.0367V31H64.7367V48.5H61.2367V34.15Z" fill="white"/>
<path d="M35.62 48.85C28.34 48.85 24 43.6 24 36.6C24 29.6 28.34 24.35 35.62 24.35C42.9 24.35 47.24 29.6 47.24 36.6C47.24 43.6 42.9 48.85 35.62 48.85ZM35.62 45.7C40.275 45.7 43.74 43.285 43.74 36.6C43.74 29.915 40.275 27.5 35.62 27.5C30.93 27.5 27.5 29.915 27.5 36.6C27.5 43.285 30.93 45.7 35.62 45.7Z" fill="white"/>
<g clip-path="url(#clip0_1_112)">
<mask id="mask0_1_112" style="mask-type:luminance" maskUnits="userSpaceOnUse" x="24" y="64" width="261" height="39">
<path d="M24 64.1L284.43 64.1V102.53H24V64.1Z" fill="white"/>
</mask>
<g mask="url(#mask0_1_112)">
<path d="M67.753 94.3998L60.6093 102.006C60.4548 102.171 60.2677 102.303 60.0596 102.393C59.8515 102.483 59.627 102.53 59.3999 102.53H25.5359C25.3744 102.53 25.2164 102.483 25.0813 102.395C24.9462 102.308 24.8399 102.182 24.7753 102.035C24.7107 101.888 24.6906 101.726 24.7176 101.568C24.7446 101.41 24.8174 101.263 24.9272 101.145L32.0628 93.5392C32.2173 93.374 32.4045 93.2421 32.6125 93.1519C32.8206 93.0617 33.0452 93.015 33.2722 93.0148H67.1362C67.2992 93.0114 67.4596 93.056 67.5971 93.143C67.7346 93.2299 67.8432 93.3553 67.9091 93.5033C67.9751 93.6514 67.9954 93.8155 67.9676 93.975C67.9399 94.1346 67.8652 94.2824 67.753 94.3998ZM60.6093 79.0798C60.4542 78.9153 60.267 78.784 60.059 78.6938C59.8511 78.6037 59.6268 78.5566 59.3999 78.5554H25.5359C25.3744 78.5555 25.2164 78.6023 25.0813 78.6902C24.9462 78.7781 24.8399 78.9032 24.7753 79.0502C24.7107 79.1972 24.6906 79.3597 24.7176 79.5178C24.7446 79.6759 24.8174 79.8228 24.9272 79.9405L32.0628 87.5505C32.2179 87.7149 32.4052 87.8462 32.6131 87.9364C32.8211 88.0266 33.0453 88.0737 33.2722 88.0749H67.1362C67.2974 88.074 67.4548 88.0266 67.5893 87.9384C67.7238 87.8502 67.8296 87.7251 67.8937 87.5782C67.9578 87.4314 67.9775 87.2692 67.9504 87.1115C67.9232 86.9537 67.8505 86.8072 67.7409 86.6898L60.6093 79.0798ZM25.5359 73.6155H59.3999C59.627 73.6153 59.8516 73.5686 60.0596 73.4784C60.2677 73.3882 60.4549 73.2563 60.6093 73.0911L67.753 65.4851C67.8368 65.3972 67.8999 65.292 67.938 65.1771C67.976 65.0621 67.988 64.9402 67.9731 64.8201C67.9582 64.7 67.9167 64.5847 67.8517 64.4824C67.7867 64.38 67.6997 64.2932 67.597 64.2281C67.4595 64.1412 67.2992 64.0967 67.1362 64.1H33.2722C33.0452 64.1003 32.8206 64.1469 32.6125 64.2372C32.4045 64.3274 32.2173 64.4592 32.0628 64.6244L24.9272 72.2304C24.8174 72.3481 24.7446 72.4949 24.7176 72.6531C24.6906 72.8112 24.7107 72.9737 24.7753 73.1207C24.8399 73.2677 24.9462 73.3928 25.0813 73.4807C25.2164 73.5686 25.3744 73.6154 25.5359 73.6155Z" fill="url(#paint1_linear_1_112)"/>
<path d="M109.039 80.3528H90.9214V74.4282H113.747V68.5035H90.8609C90.079 68.4992 89.3038 68.6479 88.5797 68.9411C87.8556 69.2343 87.1968 69.6663 86.6408 70.2124C86.0849 70.7585 85.6427 71.4079 85.3396 72.1237C85.0365 72.8395 84.8784 73.6076 84.8743 74.3841V80.3888C84.8773 81.166 85.0347 81.935 85.3373 82.6517C85.64 83.3684 86.0819 84.0188 86.638 84.5658C87.194 85.1127 87.8532 85.5454 88.5778 85.8391C89.3025 86.1328 90.0783 86.2818 90.8609 86.2775H109.002V92.2021H85.3056V98.1268H109.039C110.216 98.1333 111.37 97.7928 112.352 97.1484C113.335 96.5039 114.103 95.5845 114.56 94.5063C114.863 93.7907 115.021 93.0226 115.025 92.2462V86.2414C115.022 85.4643 114.865 84.6954 114.562 83.9787C114.259 83.262 113.817 82.6116 113.261 82.0646C112.705 81.5177 112.046 81.085 111.322 80.7913C110.597 80.4975 109.821 80.3485 109.039 80.3528ZM144.136 68.5035H125.95C124.771 68.4942 123.615 68.8329 122.629 69.4769C121.644 70.1208 120.873 71.0408 120.415 72.1203C120.111 72.837 119.952 73.6063 119.948 74.3841V92.2462C119.952 93.024 120.111 93.7934 120.415 94.5104C120.873 95.5899 121.644 96.5099 122.629 97.1538C123.615 97.7977 124.771 98.1363 125.95 98.1268H144.136C144.918 98.1311 145.693 97.9824 146.417 97.6892C147.142 97.396 147.8 96.964 148.356 96.4179C148.912 95.8718 149.354 95.2223 149.658 94.5065C149.961 93.7907 150.119 93.0227 150.123 92.2462V74.3841C150.119 73.6077 149.961 72.8396 149.657 72.1239C149.354 71.4081 148.912 70.7587 148.356 70.2128C147.8 69.6666 147.141 69.2344 146.417 68.9411C145.693 68.6478 144.918 68.4991 144.136 68.5035ZM144.092 92.2021H125.995V74.4282H144.084L144.092 92.2021ZM207.833 68.5035H190.094C189.312 68.4992 188.537 68.6479 187.813 68.9411C187.089 69.2343 186.43 69.6663 185.874 70.2124C185.318 70.7585 184.876 71.4079 184.573 72.1237C184.27 72.8395 184.112 73.6076 184.108 74.3841V98.1268H190.155V88.3951H207.813V98.1268H213.86V74.3841C213.856 73.6042 213.696 72.8328 213.391 72.1143C213.085 71.3958 212.639 70.7445 212.079 70.1978C211.519 69.6512 210.855 69.2201 210.126 68.9293C209.398 68.6385 208.618 68.4938 207.833 68.5035ZM207.788 82.4705H190.131V74.4282H207.788V82.4705ZM278.443 68.5035H260.705C259.923 68.4992 259.148 68.6479 258.424 68.9411C257.7 69.2343 257.041 69.6663 256.485 70.2124C255.929 70.7585 255.487 71.4079 255.184 72.1237C254.88 72.8395 254.722 73.6076 254.718 74.3841V98.1268H260.765V88.3951H278.383V98.1268H284.43V74.3841C284.426 73.6077 284.268 72.8396 283.964 72.1239C283.661 71.4081 283.219 70.7587 282.663 70.2128C281.54 69.11 280.022 68.4951 278.443 68.5035ZM278.383 82.4705H260.725V74.4282H278.383V82.4705ZM243.309 92.2021H240.89L232.243 70.9854C231.947 70.2534 231.437 69.626 230.779 69.1837C230.121 68.7415 229.345 68.5046 228.55 68.5035H223.184C222.399 68.4993 221.63 68.7266 220.975 69.1567C220.319 69.5867 219.807 70.2002 219.503 70.9194C219.301 71.3967 219.196 71.9089 219.193 72.4266V98.1268H225.24V74.4282H227.659L236.303 95.6448C236.604 96.3756 237.118 97.0005 237.778 97.4398C238.439 97.879 239.216 98.1127 240.012 98.1108H245.377C245.899 98.1136 246.416 98.0142 246.899 97.8185C247.382 97.6227 247.821 97.3343 248.191 96.9699C248.94 96.2341 249.363 95.2334 249.368 94.1877V68.5035H243.309V92.2021ZM161.512 68.5035H155.465V92.2462C155.469 93.0243 155.627 93.794 155.932 94.5111C156.236 95.2281 156.68 95.8784 157.238 96.4247C157.796 96.9709 158.458 97.4025 159.184 97.6946C159.91 97.9867 160.688 98.1335 161.471 98.1268H179.613V92.2021H161.512V68.5035Z" fill="white"/>
</g>
</g>
<defs>
<radialGradient id="paint0_radial_1_112" cx="0" cy="0" r="1" gradientUnits="userSpaceOnUse" gradientTransform="translate(204.291 -8.79849) rotate(144.237) scale(231.556 525.001)">
<stop stop-color="#9945FF"/>
<stop offset="0.245" stop-color="#8752F3"/>
<stop offset="0.385" stop-color="#5497D5"/>
<stop offset="0.54" stop-color="#4CA6D0"/>
<stop offset="0.735" stop-color="#28E0B9"/>
<stop offset="1" stop-color="#19FB9B"/>
</radialGradient>
<linearGradient id="paint1_linear_1_112" x1="28.3579" y1="103.447" x2="63.5872" y2="63.4495" gradientUnits="userSpaceOnUse">
<stop offset="0.08" stop-color="#9945FF"/>
<stop offset="0.3" stop-color="#8752F3"/>
<stop offset="0.5" stop-color="#5497D5"/>
<stop offset="0.6" stop-color="#43B4CA"/>
<stop offset="0.72" stop-color="#28E0B9"/>
<stop offset="0.97" stop-color="#19FB9B"/>
</linearGradient>
<clipPath id="clip0_1_112">
<rect width="260.43" height="38.4302" fill="white" transform="translate(24 64.1)"/>
</clipPath>
</defs>
</svg>
